<?xml version="1.0" standalone="no"?><svg xmlns="http://www.w3.org/2000/svg" viewBox="0 0 1440 320"><path fill="#ffffff" fill-opacity="1" d="M0,64L24,58.7C48,53,96,43,144,37.3C192,32,240,32,288,48C336,64,384,96,432,112C480,128,528,128,576,160C624,192,672,256,720,256C768,256,816,192,864,165.3C912,139,960,149,1008,144C1056,139,1104,117,1152,128C1200,139,1248,181,1296,218.7C1344,256,1392,288,1416,304L1440,320L1440,320L1416,320C1392,320,1344,320,1296,320C1248,320,1200,320,1152,320C1104,320,1056,320,1008,320C960,320,912,320,864,320C816,320,768,320,720,320C672,320,624,320,576,320C528,320,480,320,432,320C384,320,336,320,288,320C240,320,192,320,144,320C96,320,48,320,24,320L0,320Z"></path></svg>